Coordinates
version=1
nRows=25
nColumns=34
inDegrees=no

Units are S.I. units (second, meters, Newtons, ...)
If the header above contains a line with 'inDegrees', this indicates whether rotational values are in degrees (yes) or radians (no).

endheader
time	pelvis_tilt	pelvis_list	pelvis_rotation	pelvis_tx	pelvis_ty	pelvis_tz	hip_flexion_r	hip_adduction_r	hip_rotation_r	knee_angle_r	ankle_angle_r	subtalar_angle_r	mtp_angle_r	hip_flexion_l	hip_adduction_l	hip_rotation_l	knee_angle_l	ankle_angle_l	subtalar_angle_l	mtp_angle_l	lumbar_extension	lumbar_bending	lumbar_rotation	arm_flex_r	arm_add_r	arm_rot_r	elbow_flex_r	pro_sup_r	arm_flex_l	arm_add_l	arm_rot_l	elbow_flex_l	pro_sup_l
0.94	0.250906	0.0925417	-0.0297341	0.980079	0.934363	-0.299991	0.254682	-0.265232	-0.140476	0.928797	0.0149832	-0.2316	-0.0319327	-0.362238	0.135665	-0.0354712	-0.0560481	0.12121	0.051464	-0.031776	-0.660034	-0.292019	-0.241916	0.15365	-0.168136	0.305794	0.649459	1.23669	0.38731	-0.371173	0.373536	0.543907	1.1964
0.95	0.255058	0.0886762	-0.0311748	0.99062	0.934317	-0.301275	0.251358	-0.261439	-0.158382	0.877251	0.0104132	-0.237851	-0.0319318	-0.381542	0.133527	-0.0380491	-0.0573201	0.129099	0.0595944	-0.0317757	-0.660742	-0.282026	-0.240575	0.152089	-0.166868	0.290974	0.643198	1.22428	0.39104	-0.373228	0.387926	0.557066	1.19719
0.96	0.259043	0.0848705	-0.0334527	1.00119	0.93406	-0.302418	0.24702	-0.256898	-0.176766	0.823977	0.00574819	-0.241164	-0.0319309	-0.399727	0.131574	-0.0434199	-0.0567683	0.138474	0.0702453	-0.0317753	-0.661066	-0.272496	-0.238174	0.150958	-0.165517	0.276026	0.636392	1.21227	0.394771	-0.375127	0.40332	0.569738	1.19893
0.97	0.262821	0.0809585	-0.0365282	1.01181	0.93359	-0.303423	0.241787	-0.251235	-0.195415	0.769208	0.00163556	-0.240517	-0.03193	-0.417292	0.129764	-0.0508815	-0.0552236	0.148885	0.0825499	-0.0317749	-0.66095	-0.263243	-0.234718	0.150178	-0.164127	0.260884	0.629201	1.20098	0.398379	-0.376774	0.419159	0.581841	1.20199
0.98	0.266343	0.0767351	-0.040323	1.02249	0.932917	-0.30429	0.235742	-0.244055	-0.214037	0.713132	-0.00123425	-0.234948	-0.0319291	-0.434636	0.127977	-0.059831	-0.0533612	0.159947	0.0957567	-0.0317746	-0.660372	-0.254038	-0.230233	0.149682	-0.162731	0.245514	0.621784	1.19067	0.401738	-0.378085	0.43482	0.593269	1.20676
0.99	0.269553	0.0719917	-0.0447118	1.03326	0.93205	-0.305023	0.228948	-0.234992	-0.232246	0.655899	-0.00221737	-0.223669	-0.0319282	-0.452012	0.126044	-0.0698134	-0.0516628	0.171366	0.109314	-0.0317742	-0.659327	-0.244635	-0.224783	0.149411	-0.161349	0.22992	0.614298	1.18149	0.404738	-0.378997	0.44968	0.603896	1.21355
1	0.272381	0.0665576	-0.0495227	1.04413	0.931001	-0.305625	0.221481	-0.223766	-0.249557	0.597655	-0.000816555	-0.2062	-0.0319274	-0.469503	0.123781	-0.0805229	-0.0504159	0.182932	0.122892	-0.0317739	-0.657822	-0.2348	-0.218479	0.149318	-0.159988	0.214153	0.606892	1.1735	0.407297	-0.379468	0.463192	0.613583	1.22257
1.01	0.274717	0.0603422	-0.0545431	1.05509	0.929781	-0.306103	0.213479	-0.210252	-0.265388	0.538588	0.00322934	-0.182505	-0.0319265	-0.48701	0.121035	-0.0917623	-0.049736	0.194496	0.136343	-0.0317736	-0.655846	-0.224356	-0.211491	0.149364	-0.158642	0.198312	0.599708	1.16662	0.409375	-0.379484	0.474936	0.622199	1.2339
1.02	0.276403	0.0533696	-0.0595298	1.06616	0.928398	-0.306469	0.205178	-0.194528	-0.27906	0.478993	0.00988782	-0.15312	-0.0319256	-0.504258	0.117713	-0.103373	-0.0495948	0.205924	0.14961	-0.0317732	-0.65336	-0.213217	-0.204051	0.14952	-0.157292	0.182539	0.592862	1.16072	0.410976	-0.379055	0.484665	0.629636	1.24733
1.03	0.27723	0.0457974	-0.064224	1.07732	0.926858	-0.306736	0.196946	-0.176911	-0.289824	0.419335	0.0188249	-0.11922	-0.0319247	-0.520821	0.113813	-0.115158	-0.0498476	0.21707	0.16261	-0.0317729	-0.650284	-0.20141	-0.196456	0.149767	-0.155906	0.16701	0.586444	1.15559	0.412147	-0.378213	0.492322	0.635832	1.26237
1.04	0.276968	0.0379108	-0.0683693	1.08858	0.925165	-0.30692	0.189266	-0.157942	-0.296903	0.360304	0.0294554	-0.0825854	-0.0319238	-0.536171	0.109414	-0.126836	-0.0502536	0.227758	0.175146	-0.0317725	-0.646518	-0.189085	-0.189045	0.150097	-0.154435	0.15191	0.58051	1.15101	0.412974	-0.377009	0.498036	0.640775	1.27822
1.05	0.275411	0.0300881	-0.0717298	1.09992	0.923323	-0.307037	0.182686	-0.138349	-0.299566	0.302833	0.0410477	-0.0454476	-0.031923	-0.549764	0.10466	-0.138034	-0.05049	0.237793	0.186877	-0.0317722	-0.641972	-0.176485	-0.182173	0.150516	-0.152826	0.137408	0.575084	1.14677	0.413562	-0.375498	0.502091	0.644505	1.29375
1.06	0.27244	0.0227381	-0.074107	1.11135	0.92134	-0.307101	0.177731	-0.118965	-0.297246	0.248083	0.0528704	-0.0101752	-0.0319221	-0.56113	0.0997081	-0.148371	-0.0501673	0.24701	0.197411	-0.0317719	-0.636611	-0.163903	-0.176175	0.151037	-0.151027	0.123633	0.570167	1.14269	0.414022	-0.373731	0.504862	0.647092	1.30775
1.07	0.26807	0.0162144	-0.0753486	1.12286	0.919237	-0.307126	0.174792	-0.100612	-0.28971	0.197355	0.0643594	0.0211849	-0.0319212	-0.569972	0.0946727	-0.157636	-0.0488498	0.255343	0.20655	-0.0317716	-0.630489	-0.151603	-0.171317	0.15167	-0.149006	0.11063	0.565757	1.13855	0.414435	-0.371731	0.506733	0.648586	1.31927
1.08	0.262468	0.0107483	-0.0753605	1.13444	0.917048	-0.307124	0.174054	-0.0839894	-0.27714	0.151967	0.0751874	0.0472056	-0.0319204	-0.576225	0.0895995	-0.165886	-0.0460873	0.262852	0.214446	-0.0317712	-0.623741	-0.139759	-0.167765	0.152416	-0.146761	0.0983619	0.561849	1.13414	0.414829	-0.369487	0.508031	0.649005	1.3278
1.09	0.255936	0.00640187	-0.0741233	1.14612	0.914817	-0.307108	0.175445	-0.0695615	-0.260129	0.113095	0.0852327	0.0671888	-0.0319195	-0.580083	0.0844835	-0.173453	-0.0414581	0.269689	0.221643	-0.0317709	-0.616549	-0.128413	-0.165571	0.153246	-0.144328	0.0867241	0.558434	1.12923	0.415137	-0.366954	0.508974	0.648335	1.33329
1.1	0.248886	0.00306961	-0.0716868	1.15793	0.912594	-0.307088	0.178606	-0.0575021	-0.2396	0.0815828	0.0944694	0.0811014	-0.0319186	-0.581935	0.0792608	-0.180902	-0.0346117	0.276061	0.229012	-0.0317706	-0.609117	-0.117482	-0.164679	0.154103	-0.14178	0.0755841	0.555485	1.12363	0.415192	-0.364068	0.509663	0.646552	1.33603
1.11	0.241753	0.000521171	-0.0681319	1.16991	0.910422	-0.307069	0.182936	-0.0476938	-0.216656	0.0577396	0.10281	0.0893999	-0.0319178	-0.582266	0.0737552	-0.188988	-0.0252865	0.282206	0.237617	-0.0317703	-0.601629	-0.106782	-0.164956	0.154905	-0.139214	0.0648202	0.552951	1.11725	0.41477	-0.360764	0.510098	0.643654	1.33653
1.12	0.234938	-0.00156376	-0.0635429	1.1821	0.908341	-0.307047	0.187632	-0.0397485	-0.192421	0.0412255	0.109951	0.0927773	-0.0319169	-0.581567	0.0676451	-0.198595	-0.0132692	0.288349	0.2486	-0.03177	-0.594229	-0.0960592	-0.166223	0.155558	-0.136737	0.0543468	0.550756	1.11007	0.41362	-0.356985	0.510213	0.639671	1.33535
1.13	0.228751	-0.00356476	-0.0579955	1.19455	0.906374	-0.307011	0.191782	-0.0330606	-0.167881	0.0311204	0.115272	0.0918885	-0.0319161	-0.580273	0.0604599	-0.21066	0.00166062	0.294649	0.263075	-0.0317697	-0.587031	-0.0850111	-0.168263	0.155963	-0.134463	0.0441287	0.548807	1.10224	0.411504	-0.352695	0.509915	0.634674	1.333
1.14	0.223453	-0.00586748	-0.0515683	1.20729	0.904534	-0.306941	0.194534	-0.0268917	-0.143805	0.0261976	0.11785	0.0871405	-0.0319152	-0.578732	0.0516051	-0.226084	0.0197541	0.301134	0.282014	-0.0317694	-0.580128	-0.0733064	-0.170829	0.156044	-0.1325	0.034187	0.547002	1.09395	0.408233	-0.347883	0.50912	0.628773	1.32991
1.15	0.219274	-0.00887894	-0.0443561	1.22036	0.902876	-0.30681	0.195261	-0.020484	-0.120744	0.0252356	0.11659	0.0786181	-0.0319144	-0.577192	0.0404377	-0.245607	0.0412615	0.307629	0.306119	-0.0317691	-0.573612	-0.0606342	-0.173642	0.155765	-0.130943	0.0245984	0.545234	1.0855	0.403702	-0.34256	0.507784	0.622099	1.32634
1.16	0.216357	-0.0129509	-0.0364937	1.23373	0.901421	-0.306594	0.193656	-0.0131445	-0.099085	0.0272817	0.110457	0.0661463	-0.0319136	-0.575846	0.0263565	-0.269666	0.0663573	0.313703	0.335641	-0.0317688	-0.567606	-0.046725	-0.176387	0.155147	-0.129873	0.0154897	0.543398	1.07715	0.397913	-0.336756	0.505924	0.614786	1.32241
1.17	0.214777	-0.0183654	-0.0281679	1.2474	0.900186	-0.306273	0.189776	-0.00432663	-0.0791107	0.0317927	0.0987479	0.0494529	-0.0319127	-0.57485	0.00891342	-0.298243	0.0950429	0.318632	0.370202	-0.0317685	-0.562265	-0.0313928	-0.178713	0.15428	-0.12935	0.00702763	0.541382	1.06913	0.390972	-0.330512	0.503619	0.606957	1.31812
1.18	0.214558	-0.0253092	-0.019626	1.2613	0.899184	-0.305833	0.183977	0.00632062	-0.0610601	0.0386567	0.0813454	0.0283793	-0.0319119	-0.574345	-0.0120871	-0.330761	0.12711	0.321412	0.40863	-0.0317682	-0.557765	-0.0145691	-0.180244	0.153302	-0.129412	-0.000594115	0.539062	1.06158	0.383074	-0.32387	0.500999	0.598703	1.3134
